# xmcd CD database file
# Copyright (C) 1995-1998 Ti Kan
#
# Track frame offsets:
#	150
#	20655
#	38412
#	58785
#	78210
#	100617
#	121085
#	141847
#	163227
#	182222
#
# Disc length: 2666 seconds
#
# Revision: 2
# Processed by: cddbd v1.4PL0 Copyright (c) Steve Scherf et al.
# Submitted via: CDex 1.30Release
#
DISCID=7a0a680a
DTITLE=Keisa Brown - Collection
DYEAR=1900
DGENRE=Blues
TTITLE0=I've Been Lonely for So Long
TTITLE1=Fly On The Wall
TTITLE2=Your Love Is So Good
TTITLE3=Let's Take The Long Way Home
TTITLE4=Walking Or Crawling
TTITLE5=I Betcha Didn't Know That
TTITLE6=I'm Still In Love With You
TTITLE7=They Remind Me Of You
TTITLE8=Some Bridges Need Burning
TTITLE9=Two Birds With One Stone
EXTD=ID3G:   0
EXTT0=
EXTT1=
EXTT2=
EXTT3=
EXTT4=
EXTT5=
EXTT6=
EXTT7=
EXTT8=
EXTT9=
PLAYORDER=
